<svg class="svg-icon" style="width: 1em; height: 1em;vertical-align: middle;fill: currentColor;overflow: hidden;" viewBox="0 0 1024 1024" version="1.1" xmlns="http://www.w3.org/2000/svg"><path d="M681.456948 462.417745c-31.149441-15.377222-64.063061-15.575744-97.43717-10.389628-3.65832 0.565888-10.317996 0.595564-9.377578 5.154393 1.011027 4.900613 6.845918 1.316995 10.42442 0.868787 24.529673-3.062755 48.443315-2.098801 69.913303 11.842723 19.599384 12.722766 19.623943 32.225959 0.571005 45.815465-24.789593 17.675568-75.55479 18.090007-100.839663 0.975211-6.005784-4.067642-9.384741-8.965186-9.162684-16.623609 0.38067-13.412474-0.201591-26.851555 0.172939-40.265052 0.232291-8.439206-2.664689-12.800537-11.598152-11.988032-2.660596 0.242524-5.384637 0.254803-8.046257-0.008186-8.939603-0.883113-11.746532 3.38612-11.539824 11.890818 0.408299 17.10354 0.12075 34.225499 0.112564 51.342342-0.01228 15.438621-0.016373 30.875195-0.008186 46.311769 0.004093 18.750039 0.008186 18.431791 19.084661 18.429745 8.527211-0.002047 12.344143-2.856048 11.991102-11.691273-0.428765-10.723226-0.156566-21.473057-0.060375-32.213679 0.099261-10.839883 0.382717-10.700713 10.634198-6.671956 41.907459 16.470113 83.824127 16.97051 125.146255-1.740644 13.137205-5.949502 25.363667-14.652721 25.103748-31.022551C706.29259 476.615095 694.125479 468.673216 681.456948 462.417745z"  /><path d="M469.950813 457.416847c-27.607778-9.794064-55.896054-10.126638-84.447321-5.701862-4.046153 0.62524-11.320836 0.684592-10.483772 5.123694 0.981351 5.197372 7.347339 1.384533 11.255345 0.956791 23.497157-2.562359 46.420239-1.561565 67.134003 11.426237 21.205974 13.296841 21.756513 34.900881 0.168846 47.136553-32.885991 18.637476-66.602907 17.831111-99.847056-0.121773-6.452969-3.485381-9.561773-8.832156-9.333576-16.461927 0.346901-11.401678 0.075725-22.821775 0.064468-34.231639-0.020466-18.043958-0.048095-17.661242-17.718547-17.86795-9.293667-0.106424-12.495592 3.504824-12.277628 12.501732 0.408299 17.10661 0.11768 34.231639 0.125867 51.350528 0.01228 17.788132 0.160659 35.579333-0.059352 53.363372-0.095167 7.652284 2.978844 11.307533 10.769274 10.761088 2.673899-0.187265 5.386684-0.214894 8.05035 0.01535 8.3072 0.716314 11.45489-3.084245 11.187807-11.254322-0.373507-11.398608 0.082888-22.820752-0.106424-34.229592-0.125867-7.525394 1.964748-9.487072 9.471722-6.097882 35.488259 16.024975 72.110341 16.683984 109.208261 6.588045 11.734252-3.191692 22.757307-8.237615 32.04688-16.344247 14.258749-12.43931 14.518668-28.985148 0.7552-41.893132C488.43991 465.417055 479.51975 460.812177 469.950813 457.416847z"  /><path d="M282.105564 463.312114c-29.189809-15.344476-60.477396-16.165168-92.202958-12.466939-15.766079 1.839905-30.850635 6.468318-44.36851 15.175631-24.899086 16.040325-24.876574 38.114063 0.149403 53.922097 21.50171 13.588483 45.828768 16.095583 69.25327 17.551748 24.111141-0.998747 46.695508-3.729951 67.278289-14.900362 12.109806-6.570649 23.552415-14.746866 23.231097-30.215162C305.137117 477.514581 294.048571 469.595214 282.105564 463.312114zM253.076414 516.604878c-25.166169 16.820084-73.872474 16.942881-99.147114 0.249687-21.688975-14.326287-21.220301-35.190477 1.276063-48.52825 14.857383-8.80862 31.205723-11.917424 48.321542-11.528568 17.494443-0.410346 34.142611 2.935865 49.112558 12.260232C273.715477 482.190067 273.790178 502.761592 253.076414 516.604878z"  /><path d="M868.692307 462.184431c-19.908422-9.908674-41.255613-13.58746-60.788481-12.960173-28.622898-0.034792-49.29266 3.755534-66.113767 12.527314-13.007245 6.78452-25.844621 14.58109-25.706475 31.66928 0.12996 16.671705 12.592806 24.841781 25.63075 30.499641 42.10598 18.272155 84.660168 18.322297 126.762055-0.192382 13.242606-5.823636 25.391297-14.494109 25.547863-30.695093C894.180817 476.670354 881.582895 468.601584 868.692307 462.184431zM839.100338 518.197142c-14.636349 8.5487-30.968315 10.497075-47.623647 11.564383-16.380062-1.063215-32.670074-3.092431-47.231721-11.868305-23.648606-14.250562-23.815405-37.266765 0.641613-49.984415 30.875195-16.049534 62.914912-16.121166 93.827969-0.177032C863.719038 480.626455 863.459119 503.97114 839.100338 518.197142z"  /></svg>